# xmcd
#
# Track frame offsets:
#	149
#	18984
#	35250
#	54696
#	72788
#	91133
#	108314
#	127685
#	146508
#	164051
#	182916
#	202906
#	231951
#
# Disc length: 4440 seconds
#
# Revision: 2
# Processed by: cddbd v1.5.2PL0 Copyright (c) Steve Scherf et al.
# Submitted via: EasyCDDAExtractor 2010.4.0.0
#
DISCID=a911570d
DTITLE=Rosana
DYEAR=2001
DGENRE=Latin
TTITLE0=Pa'ti No Estoy
TTITLE1=Gira
TTITLE2=Donde Ya No Te Tengo
TTITLE3=Siempre De Frente
TTITLE4=Cuentan
TTITLE5=De Los Dos
TTITLE6=Hoy
TTITLE7=Y Por Más
TTITLE8=Si Pongo Corazón
TTITLE9=Lloré
TTITLE10=Mil Y Una Noche
TTITLE11=En La Otra Orilla
TTITLE12=Datos
EXTD=YEAR: 2001 ID3G:  86
EXTT0=
EXTT1=
EXTT2=
EXTT3=
EXTT4=
EXTT5=
EXTT6=
EXTT7=
EXTT8=
EXTT9=
EXTT10=
EXTT11=
EXTT12=
PLAYORDER=
